<?xml version="1.0" encoding="UTF-8" standalone="no"?>
<svg width="960px" height="560px" viewBox="0 0 960 560" version="1.1" xmlns="http://www.w3.org/2000/svg" xmlns:xlink="http://www.w3.org/1999/xlink" xmlns:sketch="http://www.bohemiancoding.com/sketch/ns">
    <!-- Generator: Sketch 3.3.2 (12043) - http://www.bohemiancoding.com/sketch -->
    <title>copay-sec-1</title>
    <desc>Created with Sketch.</desc>
    <defs></defs>
    <g id="Page-1" stroke="none" stroke-width="1" fill="none" fill-rule="evenodd" sketch:type="MSPage">
        <g id="copay-sec-1" sketch:type="MSLayerGroup">
            <rect id="Rectangle-path" fill="#16A085" sketch:type="MSShapeGroup" x="0" y="0" width="960" height="560"></rect>
            <path d="M839.6,173.8 C834.3,174.4 828.7,175.6 822.7,177.5 C820.8,178.1 819.1,179.3 817.5,180.9 C815.9,182.6 814.6,183.9 813.6,185 C812.6,186.1 811.6,188 810.5,190.8 C809.4,193.6 808.6,195.7 808.1,197.3 C807.6,198.8 806.8,201.7 805.7,205.9 C804.5,210.1 803.7,213.3 803,215.5 C798.3,231.4 790.8,247.5 780.6,264 C770.4,280.5 761.5,289.1 753.9,289.9 C749.9,290.3 747.5,287 746.7,279.8 C745.2,266.3 748,249.3 754.8,228.7 C761.7,208.1 769,193.6 776.9,185.1 C778,183.7 778.6,182.6 778.5,181.7 C778.4,180.9 777.9,180.5 777.1,180.6 C765.9,181.8 757.2,184.1 751,187.6 C744.8,191 739.3,197.8 734.2,208 C730.3,215.9 727,225.7 724.1,237.6 C709.9,271.7 697,289.4 685.4,290.6 C681.6,291 679.4,288.5 678.8,283 C677.7,272.5 680.9,255.1 688.6,230.9 C696.3,206.7 703.3,191.4 709.7,185 L706.5,185.3 L690.6,186.7 C686.4,187.2 682,189.4 677.5,193.5 C673,197.6 669.9,202.2 668.1,207.3 C665.5,200.8 661,196.3 654.8,193.9 C648.5,191.5 642,190.6 635.3,191.4 C620.9,193 608.3,199.7 597.3,211.7 C586.4,223.6 578.5,237.6 573.7,253.4 C573.6,253.7 573.5,254 573.4,254.3 C572.7,255.9 571.8,257.7 571,259.6 C565.6,271.4 561.4,279.8 558.3,284.8 C552.6,293.9 545.7,302.5 537.5,310.4 C529.3,318.3 520.8,322.8 512.1,323.7 L509.6,324 C522.4,313.2 532.9,298.9 541.2,280.9 C549.5,262.9 552.8,246 551.1,229.9 C549,210.5 540.9,201.6 526.7,203.1 C511.7,204.7 495.7,219.7 478.9,247.9 C487.2,225.7 494.2,212.1 499.9,207.3 L490.4,208.3 C477.9,209.6 469.4,213.1 464.9,218.7 C462.7,221.7 459.5,230 455.6,243.7 C454.2,248.6 452.3,255.8 449.8,265.2 C442.3,282.4 433.4,291.5 423.1,292.6 C417.2,293.2 412.4,291.5 408.7,287.4 C411.9,275.7 413,264.9 411.9,254.7 C409,228.1 395,216.2 369.8,218.9 C354.8,220.5 341.7,227 330.6,238.5 C323.9,245.4 318.4,252.9 314.2,261 C314.2,260.9 314.3,260.8 314.3,260.7 C304.1,279.8 286.5,313 264.4,332 C242.3,351 220.5,361.7 199.1,364 C164.8,367.7 145.6,350.8 141.6,313.3 C139,289.1 142.7,264.5 152.8,239.7 C162.9,214.8 177.4,193.9 196.3,177 C215.2,160.1 235.5,150.4 257.1,148 C273.4,146.2 282.2,151.5 283.5,163.7 C284.4,171.7 281.6,178.9 275.2,185.4 C268.8,191.8 261.5,195.5 253.3,196.4 C250.3,196.7 247.6,196.6 245.2,196 C243,199.9 242.1,203.4 242.5,206.5 C242.8,209.7 244.6,212.1 247.8,213.8 C251,215.5 254.9,216.1 259.6,215.6 C269.5,214.5 278.8,210.5 287.4,203.6 C296,196.7 301.5,188.8 303.9,179.7 C305.1,174.9 305.5,170.6 305.1,166.8 C304,156.5 297.9,148.5 286.8,143 C275.7,137.5 260.4,135.8 241,137.9 C221.5,140 202.4,147.4 183.5,160.1 C164.6,172.8 149.4,188 137.9,205.8 C126.3,223.6 117.7,242.4 111.9,262.3 C106.1,282.2 104.2,300.9 106.1,318.4 C111.1,364.6 138.4,385 188.2,379.6 C209.6,377.3 230.1,370.9 249.7,360.3 C269.3,349.8 285.2,336.7 297.2,321.3 C299.1,318.8 300.8,316.4 302.5,314.1 C302.6,315.9 302.7,317.6 302.9,319.4 C304.3,332.6 308.7,342 316.1,347.7 C323.5,353.4 332.4,355.7 343,354.5 C359.5,352.7 372.5,346.9 382.1,337.2 C391.7,327.5 399.4,314.6 405.4,298.9 C410.9,302.4 417.2,303.7 424.3,302.9 C430.4,302.2 436.6,299.1 443,293.4 C439.9,306.1 436.4,320.8 432.4,337.7 C420.8,386.8 412.7,415.7 408,424.3 L423.2,422.7 C427.4,422.2 430.9,421.3 433.5,420 C436.1,418.6 438.4,416 440.2,412.1 C442,408.2 444.4,399.8 447.3,386.9 L459.1,329.7 C462.8,339.8 474.7,343.7 495.1,341.5 C515.4,339.3 532.3,331 545.7,316.5 C554,307.6 561.6,296.7 568.7,284 C568.5,289.1 568.7,294.2 569.2,299.3 C571.3,318.7 579.4,327.6 593.6,326.1 C614.1,323.9 634.2,300.2 653.7,255 C650.6,268.1 649.8,281.2 651.2,294.3 C653.1,311.8 659.7,319.9 671.2,318.7 C685.9,317.1 701.9,299.9 719.2,267.2 C718.3,275 718.1,281.5 718.6,286.6 C719.4,295.4 721.8,301.8 725.7,306 C729.6,310.2 734.3,311.9 739.9,311.3 C745.5,310.7 750.3,309.5 754.3,307.8 C758.3,306.1 763.6,301.7 770.2,294.7 C776.8,287.7 784.4,277.4 793.1,263.9 L780.2,313.9 C771.9,345.7 759.1,362.6 742,364.4 C737.6,364.9 733.8,364.1 730.7,361.9 C727.6,359.8 725.8,356.7 725.4,352.7 C724.6,345.1 726,340.5 729.7,338.8 C728.4,336.8 726.4,335.1 723.7,333.7 C721,332.3 717.8,331.8 714.1,332.2 C710.4,332.6 707.3,334.8 704.9,338.8 C702.4,342.8 701.5,347.1 702,351.8 C703,360.7 707.4,366.7 715.4,370 C723.4,373.3 732.6,374.4 743.2,373.2 C753.8,372.1 764,368.3 773.8,362.1 C783.6,355.8 791.5,348 797.6,338.6 C803.7,329.2 808.5,316.8 812.2,301.5 C813.6,296.4 815.3,289.3 817.4,280 C819.5,270.7 820.9,264.9 821.4,262.5 C822,260.1 823.6,253.3 826.3,242 C828.9,230.7 832.3,218.2 836.4,204.3 C841.5,187.8 847.1,177.1 853.2,172.4 L839.6,173.8 L839.6,173.8 Z M394.1,248.1 C388.8,248.7 384.8,250.8 382.1,254.5 C379.4,258.2 378.3,262.9 379,268.6 C380,277.9 384.4,285.2 392.3,290.5 C388.3,302.7 382.9,314 376.2,324.4 C369.5,334.8 361.6,340.5 352.5,341.5 C341.4,342.1 335.2,336 333.8,323.4 C332.4,310.8 334.7,296.2 340.7,279.8 C351.6,250 364.4,234.4 379,232.8 C388.3,231.8 394,236.8 396,247.9 L394.1,248.1 L394.1,248.1 Z M474.9,329.6 C468.8,330.3 465.2,325.6 464.1,315.7 C463,305.8 466.5,292.5 474.6,275.9 C482.7,259.3 490.7,247.1 498.6,239.4 C503.4,234.6 508.1,232 512.5,231.5 C513.8,231.4 514.7,231.4 515.4,231.5 C518.7,232 520.6,234.9 521.2,240.2 C522.5,252.4 517.9,270.1 507.3,293.2 C496.7,316.3 485.9,328.4 474.9,329.6 L474.9,329.6 Z M643.3,259.3 C638.4,269.2 632.6,278 625.9,285.6 C619.2,293.2 613.1,297.4 607.6,298 C602.5,298.5 599.6,295.6 598.9,289 C597.3,273.8 602,255.9 613,235.2 C624,214.5 636.5,203.4 650.5,201.9 C658.3,201.1 663.7,203.9 666.5,210.4 C661.9,220.9 654.2,237.2 643.3,259.3 L643.3,259.3 Z" id="Shape" fill="#FFFFFF" sketch:type="MSShapeGroup"></path>
            <g id="Group" transform="translate(194.000000, 371.000000)" fill="#FFFFFF" sketch:type="MSShapeGroup">
                <path d="M212.2,0.8 C140.1,13.1 70.9,30.5 22.1,50.5 C1.7,58.8 -3.4,75.5 3,91.2 C85.9,53.4 127,42.7 187.6,27.7 C198.3,25 206.9,17 210.4,6.5 C211,4.5 211.6,2.6 212.2,0.8 L212.2,0.8 Z" id="Shape"></path>
            </g>
            <path d="M676,363.6 C678.1,354.6 675.7,354.2 666.5,352.9 C616.2,345.6 560.9,346.1 494.3,360.4 C483.1,362.8 473.9,370.6 472.1,382 C472.1,382 555.7,354.5 676,363.6 L676,363.6 L676,363.6 Z" id="Shape" fill="#FFFFFF" sketch:type="MSShapeGroup"></path>
        </g>
    </g>
</svg>