<?xml version="1.0" encoding="utf-8"?>
<!-- Generator: Adobe Illustrator 18.1.0, SVG Export Plug-In . SVG Version: 6.00 Build 0)  -->
<!DOCTYPE svg PUBLIC "-//W3C//DTD SVG 1.1//EN" "http://www.w3.org/Graphics/SVG/1.1/DTD/svg11.dtd">
<svg version="1.1" id="Layer_1" xmlns="http://www.w3.org/2000/svg" xmlns:xlink="http://www.w3.org/1999/xlink" x="0px" y="0px"
	 viewBox="0 0 960 560" enable-background="new 0 0 960 560" xml:space="preserve">
<path fill="#2C3E50" d="M849.5,143.6c-0.1-1.2,0-2.3,0.1-3.4c0.1-1.1,0.3-2.2,0.5-3.4l4.8-24.4c-1.4-0.6-3.1-1.1-5-1.3
	c-1.9-0.2-3.6-0.3-5-0.2c-4.8,0.3-8.9,1.3-12.4,3c-3.5,1.8-6.4,4-8.6,6.7c-2.2,2.7-3.9,5.7-4.9,9c-1,3.3-1.4,6.7-1.3,10.1
	c0.1,2.1,0.5,4,1.1,5.7c0.6,1.7,1.4,3.2,2.6,4.4c1.1,1.2,2.5,2.1,4.2,2.8c1.7,0.6,3.7,0.9,6,0.8c2.8-0.1,5.2-0.8,7.1-1.9
	c1.9-1.1,3.4-2.2,4.5-3.3c0.2,0.8,0.4,1.5,0.7,2.2c0.3,0.7,0.6,1.3,0.9,1.8l6.4-1.3c-0.6-1.4-1-2.6-1.3-3.8
	C849.8,145.9,849.6,144.8,849.5,143.6z M842.9,136.6c-0.2,1-0.3,1.9-0.4,2.9s-0.1,1.9-0.1,2.7c-1.1,1.3-2.4,2.4-3.9,3.4
	s-3.4,1.6-5.6,1.7c-1.5,0.1-2.7-0.1-3.6-0.6c-1-0.5-1.7-1.1-2.3-2s-1-1.8-1.3-2.9c-0.3-1.1-0.4-2.2-0.5-3.2c-0.1-2.7,0.2-5.3,1-7.9
	c0.8-2.5,2-4.8,3.6-6.7c1.6-2,3.6-3.6,6-4.8c2.4-1.3,5-2,8.1-2.1c0.5,0,1,0,1.6,0c0.6,0,1,0.1,1.3,0.2L842.9,136.6z"/>
<path fill="#2C3E50" d="M800.5,155.2c-4,0.2-6.9-0.5-8.8-2.1c-1.9-1.6-3-4-3.2-7.2c-0.1-2.1,0.1-4.8,0.7-8.1l6.7-34.6l7.6-1.6
	l-2.4,12.5l14-0.7l-1.2,6.1l-14,0.7l-3.4,17.9c-0.5,2.4-0.7,4.5-0.6,6.3c0.1,1.7,0.6,2.9,1.6,3.6c1,0.7,2.6,1,4.8,0.9
	c1.5-0.1,3-0.4,4.5-1c1.4-0.6,2.6-1.1,3.3-1.5l0.9,6c-0.8,0.5-2.1,1.1-4,1.7C805.1,154.6,802.9,155,800.5,155.2z"/>
<path fill="#2C3E50" d="M781,120.4c-0.5-1.2-1.3-2.2-2.3-3.1c-1-0.9-2.3-1.5-3.9-2c-1.6-0.5-3.5-0.6-5.6-0.5c-3.7,0.2-7,1.1-9.9,2.8
	c-2.9,1.7-5.3,3.8-7.2,6.5s-3.3,5.7-4.3,9.1c-0.9,3.4-1.3,6.9-1.1,10.4c0.1,1.9,0.5,3.8,1.2,5.5c0.7,1.7,1.8,3.2,3.2,4.4
	c1.4,1.2,3.1,2.2,5.1,2.8c2,0.6,4.3,0.9,7,0.7c3.2-0.2,5.9-0.6,8.2-1.4c2.3-0.8,4-1.5,5-2.1l-0.9-6c-0.3,0.3-0.8,0.6-1.6,0.9
	c-0.7,0.3-1.6,0.6-2.6,1c-1,0.3-2,0.6-3,0.9c-1.1,0.2-2.1,0.4-3.1,0.4c-2.3,0.1-4.1,0-5.5-0.4c-1.4-0.4-2.5-1-3.4-1.7
	c-0.8-0.8-1.4-1.6-1.8-2.7c-0.3-1-0.5-2.1-0.6-3.3l0-0.6c0-0.3,0-0.6,0-1c1.9-0.2,4-0.4,6.2-0.7c2.2-0.2,4.3-0.6,6.4-1.1
	c2.1-0.5,4.1-1.1,6.1-1.8c1.9-0.7,3.6-1.7,5-2.9c1.4-1.2,2.5-2.7,3.3-4.4c0.8-1.7,1.2-3.8,1-6.2C781.9,122.8,781.6,121.6,781,120.4z
	 M773.5,129.7c-1,1.2-2.4,2.2-4.2,3c-1.8,0.8-4,1.4-6.5,1.8s-5.3,0.8-8.3,1c0.4-1.9,1-3.7,1.8-5.4c0.8-1.7,1.8-3.2,3-4.5
	c1.2-1.3,2.6-2.4,4.1-3.3c1.6-0.9,3.3-1.3,5.1-1.4c1.2-0.1,2.1,0,2.9,0.3c0.8,0.2,1.4,0.6,1.9,1c0.5,0.4,0.8,0.9,1,1.4
	c0.2,0.5,0.3,1,0.4,1.4C774.9,126.9,774.4,128.4,773.5,129.7z"/>
<path fill="#2C3E50" d="M738.7,124.9c-0.6-1.7-1.6-3.2-2.7-4.4c-1.2-1.2-2.6-2.1-4.4-2.7c-1.7-0.6-3.8-0.9-6-0.8
	c-1.8,0.1-3.5,0.4-5,1c-1.6,0.6-2.9,1.3-4.1,2.1l4.1-21.5l-7.6,1.6l-11,57.5c0.7,0.4,1.5,0.7,2.5,0.9c0.9,0.3,1.9,0.5,2.9,0.6
	c1,0.2,2,0.2,2.9,0.3c1,0,1.8,0,2.6,0c4.8-0.3,8.9-1.2,12.4-3c3.5-1.7,6.3-4,8.6-6.7c2.2-2.7,3.8-5.7,4.8-9.1
	c1-3.4,1.4-6.8,1.2-10.3C739.7,128.4,739.3,126.6,738.7,124.9z M731.5,139.4c-0.8,2.5-2,4.8-3.6,6.8c-1.6,2-3.6,3.6-5.9,4.9
	c-2.4,1.3-5,2-8.1,2.2c-0.7,0-1.4,0-2.1,0c-0.7-0.1-1.3-0.1-1.8-0.2l5-26.3c1.3-1,2.7-1.9,4.3-2.5c1.5-0.6,3.1-1,4.7-1.1
	c1.6-0.1,2.9,0.1,4,0.5c1.1,0.4,1.9,1,2.6,1.8c0.6,0.8,1.1,1.7,1.4,2.8c0.3,1.1,0.5,2.2,0.5,3.3
	C732.6,134.3,732.3,136.9,731.5,139.4z"/>
<path fill="#2C3E50" d="M839.6,173.8c-5.3,0.6-10.9,1.8-16.9,3.7c-1.9,0.6-3.6,1.8-5.2,3.4c-1.6,1.7-2.9,3-3.9,4.1
	c-1,1.1-2,3-3.1,5.8c-1.1,2.8-1.9,4.9-2.4,6.5c-0.5,1.5-1.3,4.4-2.4,8.6c-1.2,4.2-2,7.4-2.7,9.6c-4.7,15.9-12.2,32-22.4,48.5
	c-10.2,16.5-19.1,25.1-26.7,25.9c-4,0.4-6.4-2.9-7.2-10.1c-1.5-13.5,1.3-30.5,8.1-51.1c6.9-20.6,14.2-35.1,22.1-43.6
	c1.1-1.4,1.7-2.5,1.6-3.4c-0.1-0.8-0.6-1.2-1.4-1.1c-11.2,1.2-19.9,3.5-26.1,7c-6.2,3.4-11.7,10.2-16.8,20.4
	c-3.9,7.9-7.2,17.7-10.1,29.6c-14.2,34.1-27.1,51.8-38.7,53c-3.8,0.4-6-2.1-6.6-7.6c-1.1-10.5,2.1-27.9,9.8-52.1
	c7.7-24.2,14.7-39.5,21.1-45.9l-3.2,0.3l-15.9,1.4c-4.2,0.5-8.6,2.7-13.1,6.8c-4.5,4.1-7.6,8.7-9.4,13.8c-2.6-6.5-7.1-11-13.3-13.4
	c-6.3-2.4-12.8-3.3-19.5-2.5c-14.4,1.6-27,8.3-38,20.3c-10.9,11.9-18.8,25.9-23.6,41.7c-0.1,0.3-0.2,0.6-0.3,0.9
	c-0.7,1.6-1.6,3.4-2.4,5.3c-5.4,11.8-9.6,20.2-12.7,25.2c-5.7,9.1-12.6,17.7-20.8,25.6c-8.2,7.9-16.7,12.4-25.4,13.3l-2.5,0.3
	c12.8-10.8,23.3-25.1,31.6-43.1c8.3-18,11.6-34.9,9.9-51c-2.1-19.4-10.2-28.3-24.4-26.8c-15,1.6-31,16.6-47.8,44.8
	c8.3-22.2,15.3-35.8,21-40.6l-9.5,1c-12.5,1.3-21,4.8-25.5,10.4c-2.2,3-5.4,11.3-9.3,25c-1.4,4.9-3.3,12.1-5.8,21.5
	c-7.5,17.2-16.4,26.3-26.7,27.4c-5.9,0.6-10.7-1.1-14.4-5.2c3.2-11.7,4.3-22.5,3.2-32.7c-2.9-26.6-16.9-38.5-42.1-35.8
	c-15,1.6-28.1,8.1-39.2,19.6c-6.7,6.9-12.2,14.4-16.4,22.5c0-0.1,0.1-0.2,0.1-0.3c-10.2,19.1-27.8,52.3-49.9,71.3
	c-22.1,19-43.9,29.7-65.3,32c-34.3,3.7-53.5-13.2-57.5-50.7c-2.6-24.2,1.1-48.8,11.2-73.6c10.1-24.9,24.6-45.8,43.5-62.7
	s39.2-26.6,60.8-29c16.3-1.8,25.1,3.5,26.4,15.7c0.9,8-1.9,15.2-8.3,21.7c-6.4,6.4-13.7,10.1-21.9,11c-3,0.3-5.7,0.2-8.1-0.4
	c-2.2,3.9-3.1,7.4-2.7,10.5c0.3,3.2,2.1,5.6,5.3,7.3c3.2,1.7,7.1,2.3,11.8,1.8c9.9-1.1,19.2-5.1,27.8-12
	c8.6-6.9,14.1-14.8,16.5-23.9c1.2-4.8,1.6-9.1,1.2-12.9c-1.1-10.3-7.2-18.3-18.3-23.8s-26.4-7.2-45.8-5.1
	c-19.5,2.1-38.6,9.5-57.5,22.2c-18.9,12.7-34.1,27.9-45.6,45.7c-11.6,17.8-20.2,36.6-26,56.5c-5.8,19.9-7.7,38.6-5.8,56.1
	c5,46.2,32.3,66.6,82.1,61.2c21.4-2.3,41.9-8.7,61.5-19.3c19.6-10.5,35.5-23.6,47.5-39c1.9-2.5,3.6-4.9,5.3-7.2
	c0.1,1.8,0.2,3.5,0.4,5.3c1.4,13.2,5.8,22.6,13.2,28.3c7.4,5.7,16.3,8,26.9,6.8c16.5-1.8,29.5-7.6,39.1-17.3s17.3-22.6,23.3-38.3
	c5.5,3.5,11.8,4.8,18.9,4c6.1-0.7,12.3-3.8,18.7-9.5c-3.1,12.7-6.6,27.4-10.6,44.3c-11.6,49.1-19.7,78-24.4,86.6l15.2-1.6
	c4.2-0.5,7.7-1.4,10.3-2.7c2.6-1.4,4.9-4,6.7-7.9c1.8-3.9,4.2-12.3,7.1-25.2l11.8-57.2c3.7,10.1,15.6,14,36,11.8
	c20.3-2.2,37.2-10.5,50.6-25c8.3-8.9,15.9-19.8,23-32.5c-0.2,5.1,0,10.2,0.5,15.3c2.1,19.4,10.2,28.3,24.4,26.8
	c20.5-2.2,40.6-25.9,60.1-71.1c-3.1,13.1-3.9,26.2-2.5,39.3c1.9,17.5,8.5,25.6,20,24.4c14.7-1.6,30.7-18.8,48-51.5
	c-0.9,7.8-1.1,14.3-0.6,19.4c0.8,8.8,3.2,15.2,7.1,19.4c3.9,4.2,8.6,5.9,14.2,5.3c5.6-0.6,10.4-1.8,14.4-3.5
	c4-1.7,9.3-6.1,15.9-13.1c6.6-7,14.2-17.3,22.9-30.8l-12.9,50c-8.3,31.8-21.1,48.7-38.2,50.5c-4.4,0.5-8.2-0.3-11.3-2.5
	c-3.1-2.1-4.9-5.2-5.3-9.2c-0.8-7.6,0.6-12.2,4.3-13.9c-1.3-2-3.3-3.7-6-5.1c-2.7-1.4-5.9-1.9-9.6-1.5c-3.7,0.4-6.8,2.6-9.2,6.6
	c-2.5,4-3.4,8.3-2.9,13c1,8.9,5.4,14.9,13.4,18.2c8,3.3,17.2,4.4,27.8,3.2c10.6-1.1,20.8-4.9,30.6-11.1c9.8-6.3,17.7-14.1,23.8-23.5
	s10.9-21.8,14.6-37.1c1.4-5.1,3.1-12.2,5.2-21.5c2.1-9.3,3.5-15.1,4-17.5c0.6-2.4,2.2-9.2,4.9-20.5c2.6-11.3,6-23.8,10.1-37.7
	c5.1-16.5,10.7-27.2,16.8-31.9L839.6,173.8z M394.1,248.1c-5.3,0.6-9.3,2.7-12,6.4c-2.7,3.7-3.8,8.4-3.1,14.1
	c1,9.3,5.4,16.6,13.3,21.9c-4,12.2-9.4,23.5-16.1,33.9c-6.7,10.4-14.6,16.1-23.7,17.1c-11.1,0.6-17.3-5.5-18.7-18.1
	c-1.4-12.6,0.9-27.2,6.9-43.6c10.9-29.8,23.7-45.4,38.3-47c9.3-1,15,4,17,15.1L394.1,248.1z M474.9,329.6c-6.1,0.7-9.7-4-10.8-13.9
	c-1.1-9.9,2.4-23.2,10.5-39.8c8.1-16.6,16.1-28.8,24-36.5c4.8-4.8,9.5-7.4,13.9-7.9c1.3-0.1,2.2-0.1,2.9,0c3.3,0.5,5.2,3.4,5.8,8.7
	c1.3,12.2-3.3,29.9-13.9,53C496.7,316.3,485.9,328.4,474.9,329.6z M643.3,259.3c-4.9,9.9-10.7,18.7-17.4,26.3
	c-6.7,7.6-12.8,11.8-18.3,12.4c-5.1,0.5-8-2.4-8.7-9c-1.6-15.2,3.1-33.1,14.1-53.8c11-20.7,23.5-31.8,37.5-33.3
	c7.8-0.8,13.2,2,16,8.5C661.9,220.9,654.2,237.2,643.3,259.3z"/>
<g>
	<path fill="#2C3E50" d="M203.1,462.1L203.1,462.1C203.1,462.1,203.1,462.1,203.1,462.1C203.1,462.1,203.1,462.1,203.1,462.1z"/>
	<path fill="#2C3E50" d="M406.2,371.8c-72.1,12.3-141.3,29.7-190.1,49.7c-20.4,8.3-25.5,25-19.1,40.7c82.9-37.8,124-48.5,184.6-63.5
		c10.7-2.7,19.3-10.7,22.8-21.2C405,375.5,405.6,373.6,406.2,371.8z"/>
</g>
<path fill="#2C3E50" d="M676,363.6c2.1-9-0.3-9.4-9.5-10.7c-50.3-7.3-105.6-6.8-172.2,7.5c-11.2,2.4-20.4,10.2-22.2,21.6
	C472.1,382,555.7,354.5,676,363.6L676,363.6z"/>
</svg>
