<?xml version="1.0" encoding="UTF-8" standalone="no"?>
<svg width="749px" height="326px" viewBox="0 0 749 326" version="1.1" xmlns="http://www.w3.org/2000/svg" xmlns:xlink="http://www.w3.org/1999/xlink" xmlns:sketch="http://www.bohemiancoding.com/sketch/ns">
    <!-- Generator: Sketch 3.3.2 (12043) - http://www.bohemiancoding.com/sketch -->
    <title>copay-negative</title>
    <desc>Created with Sketch.</desc>
    <defs></defs>
    <g id="Page-1" stroke="none" stroke-width="1" fill="none" fill-rule="evenodd" sketch:type="MSPage">
        <g id="copay-negative" sketch:type="MSLayerGroup" fill="#2C3E50">
            <path d="M734.6,36.8 C729.3,37.4 723.7,38.6 717.7,40.5 C715.8,41.1 714.1,42.3 712.5,43.9 C710.9,45.6 709.6,46.9 708.6,48 C707.6,49.1 706.6,51 705.5,53.8 C704.4,56.6 703.6,58.7 703.1,60.3 C702.6,61.8 701.8,64.7 700.7,68.9 C699.5,73.1 698.7,76.3 698,78.5 C693.3,94.4 685.8,110.5 675.6,127 C665.4,143.5 656.5,152.1 648.9,152.9 C644.9,153.3 642.5,150 641.7,142.8 C640.2,129.3 643,112.3 649.8,91.7 C656.7,71.1 664,56.6 671.9,48.1 C673,46.7 673.6,45.6 673.5,44.7 C673.4,43.9 672.9,43.5 672.1,43.6 C660.9,44.8 652.2,47.1 646,50.6 C639.8,54 634.3,60.8 629.2,71 C625.3,78.9 622,88.7 619.1,100.6 C604.9,134.7 592,152.4 580.4,153.6 C576.6,154 574.4,151.5 573.8,146 C572.7,135.5 575.9,118.1 583.6,93.9 C591.3,69.7 598.3,54.4 604.7,48 L601.5,48.3 L585.6,49.7 C581.4,50.2 577,52.4 572.5,56.5 C568,60.6 564.9,65.2 563.1,70.3 C560.5,63.8 556,59.3 549.8,56.9 C543.5,54.5 537,53.6 530.3,54.4 C515.9,56 503.3,62.7 492.3,74.7 C481.4,86.6 473.5,100.6 468.7,116.4 C468.6,116.7 468.5,117 468.4,117.3 C467.7,118.9 466.8,120.7 466,122.6 C460.6,134.4 456.4,142.8 453.3,147.8 C447.6,156.9 440.7,165.5 432.5,173.4 C424.3,181.3 415.8,185.8 407.1,186.7 L404.6,187 C417.4,176.2 427.9,161.9 436.2,143.9 C444.5,125.9 447.8,109 446.1,92.9 C444,73.5 435.9,64.6 421.7,66.1 C406.7,67.7 390.7,82.7 373.9,110.9 C382.2,88.7 389.2,75.1 394.9,70.3 L385.4,71.3 C372.9,72.6 364.4,76.1 359.9,81.7 C357.7,84.7 354.5,93 350.6,106.7 C349.2,111.6 347.3,118.8 344.8,128.2 C337.3,145.4 328.4,154.5 318.1,155.6 C312.2,156.2 307.4,154.5 303.7,150.4 C306.9,138.7 308,127.9 306.9,117.7 C304,91.1 290,79.2 264.8,81.9 C249.8,83.5 236.7,90 225.6,101.5 C218.9,108.4 213.4,115.9 209.2,124 C209.2,123.9 209.3,123.8 209.3,123.7 C199.1,142.8 181.5,176 159.4,195 C137.3,214 115.5,224.7 94.1,227 C59.8,230.7 40.6,213.8 36.6,176.3 C34,152.1 37.7,127.5 47.8,102.7 C57.9,77.8 72.4,56.9 91.3,40 C110.2,23.1 130.5,13.4 152.1,11 C168.4,9.2 177.2,14.5 178.5,26.7 C179.4,34.7 176.6,41.9 170.2,48.4 C163.8,54.8 156.5,58.5 148.3,59.4 C145.3,59.7 142.6,59.6 140.2,59 C138,62.9 137.1,66.4 137.5,69.5 C137.8,72.7 139.6,75.1 142.8,76.8 C146,78.5 149.9,79.1 154.6,78.6 C164.5,77.5 173.8,73.5 182.4,66.6 C191,59.7 196.5,51.8 198.9,42.7 C200.1,37.9 200.5,33.6 200.1,29.8 C199,19.5 192.9,11.5 181.8,6 C170.7,0.5 155.4,-1.2 136,0.9 C116.5,3 97.4,10.4 78.5,23.1 C59.6,35.8 44.4,51 32.9,68.8 C21.3,86.6 12.7,105.4 6.9,125.3 C1.1,145.2 -0.8,163.9 1.1,181.4 C6.1,227.6 33.4,248 83.2,242.6 C104.6,240.3 125.1,233.9 144.7,223.3 C164.3,212.8 180.2,199.7 192.2,184.3 C194.1,181.8 195.8,179.4 197.5,177.1 C197.6,178.9 197.7,180.6 197.9,182.4 C199.3,195.6 203.7,205 211.1,210.7 C218.5,216.4 227.4,218.7 238,217.5 C254.5,215.7 267.5,209.9 277.1,200.2 C286.7,190.5 294.4,177.6 300.4,161.9 C305.9,165.4 312.2,166.7 319.3,165.9 C325.4,165.2 331.6,162.1 338,156.4 C334.9,169.1 331.4,183.8 327.4,200.7 C315.8,249.8 307.7,278.7 303,287.3 L318.2,285.7 C322.4,285.2 325.9,284.3 328.5,283 C331.1,281.6 333.4,279 335.2,275.1 C337,271.2 339.4,262.8 342.3,249.9 L354.1,192.7 C357.8,202.8 369.7,206.7 390.1,204.5 C410.4,202.3 427.3,194 440.7,179.5 C449,170.6 456.6,159.7 463.7,147 C463.5,152.1 463.7,157.2 464.2,162.3 C466.3,181.7 474.4,190.6 488.6,189.1 C509.1,186.9 529.2,163.2 548.7,118 C545.6,131.1 544.8,144.2 546.2,157.3 C548.1,174.8 554.7,182.9 566.2,181.7 C580.9,180.1 596.9,162.9 614.2,130.2 C613.3,138 613.1,144.5 613.6,149.6 C614.4,158.4 616.8,164.8 620.7,169 C624.6,173.2 629.3,174.9 634.9,174.3 C640.5,173.7 645.3,172.5 649.3,170.8 C653.3,169.1 658.6,164.7 665.2,157.7 C671.8,150.7 679.4,140.4 688.1,126.9 L675.2,176.9 C666.9,208.7 654.1,225.6 637,227.4 C632.6,227.9 628.8,227.1 625.7,224.9 C622.6,222.8 620.8,219.7 620.4,215.7 C619.6,208.1 621,203.5 624.7,201.8 C623.4,199.8 621.4,198.1 618.7,196.7 C616,195.3 612.8,194.8 609.1,195.2 C605.4,195.6 602.3,197.8 599.9,201.8 C597.4,205.8 596.5,210.1 597,214.8 C598,223.7 602.4,229.7 610.4,233 C618.4,236.3 627.6,237.4 638.2,236.2 C648.8,235.1 659,231.3 668.8,225.1 C678.6,218.8 686.5,211 692.6,201.6 C698.7,192.2 703.5,179.8 707.2,164.5 C708.6,159.4 710.3,152.3 712.4,143 C714.5,133.7 715.9,127.9 716.4,125.5 C717,123.1 718.6,116.3 721.3,105 C723.9,93.7 727.3,81.2 731.4,67.3 C736.5,50.8 742.1,40.1 748.2,35.4 L734.6,36.8 L734.6,36.8 Z M289.1,111.1 C283.8,111.7 279.8,113.8 277.1,117.5 C274.4,121.2 273.3,125.9 274,131.6 C275,140.9 279.4,148.2 287.3,153.5 C283.3,165.7 277.9,177 271.2,187.4 C264.5,197.8 256.6,203.5 247.5,204.5 C236.4,205.1 230.2,199 228.8,186.4 C227.4,173.8 229.7,159.2 235.7,142.8 C246.6,113 259.4,97.4 274,95.8 C283.3,94.8 289,99.8 291,110.9 L289.1,111.1 L289.1,111.1 Z M369.9,192.6 C363.8,193.3 360.2,188.6 359.1,178.7 C358,168.8 361.5,155.5 369.6,138.9 C377.7,122.3 385.7,110.1 393.6,102.4 C398.4,97.6 403.1,95 407.5,94.5 C408.8,94.4 409.7,94.4 410.4,94.5 C413.7,95 415.6,97.9 416.2,103.2 C417.5,115.4 412.9,133.1 402.3,156.2 C391.7,179.3 380.9,191.4 369.9,192.6 L369.9,192.6 Z M538.3,122.3 C533.4,132.2 527.6,141 520.9,148.6 C514.2,156.2 508.1,160.4 502.6,161 C497.5,161.5 494.6,158.6 493.9,152 C492.3,136.8 497,118.9 508,98.2 C519,77.5 531.5,66.4 545.5,64.9 C553.3,64.1 558.7,66.9 561.5,73.4 C556.9,83.9 549.2,100.2 538.3,122.3 L538.3,122.3 Z" id="Shape" sketch:type="MSShapeGroup"></path>
            <g id="Group" transform="translate(89.000000, 234.000000)" sketch:type="MSShapeGroup">
                <path d="M212.2,0.8 C140.1,13.1 70.9,30.5 22.1,50.5 C1.7,58.8 -3.4,75.5 3,91.2 C85.9,53.4 127,42.7 187.6,27.7 C198.3,25 206.9,17 210.4,6.5 C211,4.5 211.6,2.6 212.2,0.8 L212.2,0.8 Z" id="Shape"></path>
            </g>
            <path d="M571,226.6 C573.1,217.6 570.7,217.2 561.5,215.9 C511.2,208.6 455.9,209.1 389.3,223.4 C378.1,225.8 368.9,233.6 367.1,245 C367.1,245 450.7,217.5 571,226.6 L571,226.6 L571,226.6 Z" id="Shape" sketch:type="MSShapeGroup"></path>
        </g>
    </g>
</svg>